<svg width="236" height="78" viewBox="0 0 236 78" fill="none" xmlns="http://www.w3.org/2000/svg">
<path d="M36.5183 32.6758H8.24873V27.4218L30.1273 8.32707H8.24873V3.93567L36.5183 3.91607V9.38571L14.8554 28.2648H36.5183V32.6758ZM43.4293 8.64074V15.914H49.9772V20.6387H43.4293V27.9119H51.3691V32.6562H38.4302V3.91607L51.3691 3.89646V8.64074H43.4293ZM58.927 3.93567V12.2872C60.7045 9.29422 62.874 7.03318 65.4357 5.50403C67.9973 3.97488 70.9184 3.21031 74.1988 3.21031C76.3945 3.21031 78.3942 3.4521 80.1978 3.93567C82.0145 4.40618 83.5894 5.11194 84.9225 6.05295C86.2033 6.95476 87.1901 8.02647 87.8827 9.26808C88.5885 10.5097 88.9414 11.8167 88.9414 13.189C88.9414 13.9862 88.8172 14.7769 88.5689 15.5611C88.3206 16.3453 87.9481 17.0968 87.4514 17.8156C86.9679 18.5214 86.3601 19.1814 85.6282 19.7957C84.8963 20.3969 84.0468 20.9197 83.0797 21.364C82.1125 21.8084 81.0277 22.1613 79.8253 22.4227C78.636 22.671 77.329 22.7951 75.9044 22.7951C73.3166 22.7951 70.951 22.4423 68.8076 21.7365C69.435 22.6252 70.1407 23.5009 70.9249 24.3635C71.7091 25.213 72.5782 25.9711 73.5323 26.6376C74.4994 27.3042 75.545 27.8466 76.669 28.2648C77.8061 28.6699 79.0281 28.8725 80.335 28.8725C80.7663 28.8725 81.2303 28.8202 81.7269 28.7157C82.2367 28.6111 82.7529 28.4674 83.2757 28.2844C83.8116 28.0883 84.3409 27.8531 84.8637 27.5786C85.3995 27.3042 85.9092 27.0036 86.3928 26.6768L88.9414 30.4213C88.2618 30.8918 87.556 31.31 86.8241 31.676C86.0922 32.0419 85.3538 32.3556 84.6088 32.617C83.8769 32.8653 83.145 33.0548 82.4131 33.1855C81.6943 33.3293 81.0016 33.4011 80.335 33.4011C78.7144 33.4011 77.1983 33.179 75.7868 32.7346C74.3884 32.3033 73.0945 31.7217 71.9051 30.9898C70.7158 30.2579 69.631 29.4214 68.6508 28.4804C67.6706 27.5394 66.7818 26.5657 65.9846 25.5594C65.2004 24.5399 64.5077 23.527 63.9065 22.5207C63.3053 21.5143 62.7956 20.5864 62.3774 19.7369C62.3512 19.6846 62.312 19.5931 62.2597 19.4624L67.0432 15.8944C69.3958 17.4627 72.3495 18.2469 75.9044 18.2469C77.3029 18.2469 78.5249 18.1031 79.5705 17.8156C80.6291 17.5281 81.5178 17.1491 82.2367 16.6786C82.9555 16.195 83.4913 15.6526 83.8442 15.0514C84.2102 14.4371 84.3932 13.8163 84.3932 13.189C84.3932 12.5616 84.2102 11.9539 83.8442 11.3658C83.4913 10.7646 82.9751 10.2222 82.2955 9.73859C81.9687 9.5164 81.5636 9.28769 81.08 9.05243C80.6095 8.81718 80.041 8.60153 79.3744 8.40549C78.7209 8.20944 77.9629 8.05261 77.1003 7.93498C76.2508 7.80428 75.2836 7.73893 74.1988 7.73893C71.2451 7.73893 68.6965 8.56886 66.5531 10.2287C64.4097 11.8755 62.6584 14.3587 61.2991 17.6784C60.8678 18.724 60.5084 19.763 60.2209 20.7955C59.9333 21.828 59.6981 22.7951 59.5151 23.6969C59.3452 24.5988 59.2145 25.4091 59.123 26.1279C59.0315 26.8337 58.9662 27.3891 58.927 27.7943V32.6954H54.0259V3.93567H58.927ZM110.183 3.11229C112.013 3.11229 113.79 3.29526 115.516 3.66121C117.254 4.01409 118.888 4.51727 120.417 5.17075C121.946 5.82423 123.344 6.61495 124.612 7.54289C125.88 8.45776 126.971 9.4772 127.886 10.6012C128.814 11.7121 129.533 12.9145 130.042 14.2084C130.552 15.4892 130.807 16.8223 130.807 18.2077C130.807 19.5931 130.552 20.9327 130.042 22.2266C129.533 23.5074 128.814 24.7098 127.886 25.8338C126.971 26.9448 125.88 27.9642 124.612 28.8921C123.344 29.807 121.946 30.5912 120.417 31.2447C118.888 31.8981 117.254 32.4013 115.516 32.7542C113.79 33.1201 112.013 33.3031 110.183 33.3031C108.353 33.3031 106.569 33.1201 104.831 32.7542C103.106 32.4013 101.479 31.8981 99.9497 31.2447C98.4205 30.5912 97.0155 29.807 95.7347 28.8921C94.467 27.9642 93.3756 26.9448 92.4608 25.8338C91.5459 24.7098 90.8336 23.5074 90.3239 22.2266C89.8142 20.9327 89.5593 19.5931 89.5593 18.2077C89.5593 16.8223 89.8142 15.4892 90.3239 14.2084C90.8336 12.9145 91.5459 11.7121 92.4608 10.6012C93.3756 9.4772 94.467 8.45776 95.7347 7.54289C97.0155 6.61495 98.4205 5.82423 99.9497 5.17075C101.479 4.51727 103.106 4.01409 104.831 3.66121C106.569 3.29526 108.353 3.11229 110.183 3.11229ZM95.1466 18.2077C95.1466 19.3578 95.3426 20.4165 95.7347 21.3836C96.1268 22.3508 96.6692 23.2199 97.3619 23.991C98.0676 24.7621 98.891 25.4352 99.832 26.0103C100.786 26.5853 101.819 27.0689 102.93 27.461C104.04 27.84 105.21 28.1276 106.439 28.3236C107.667 28.5066 108.909 28.5981 110.164 28.5981C111.418 28.5981 112.66 28.5066 113.888 28.3236C115.117 28.1276 116.287 27.84 117.398 27.461C118.522 27.0689 119.554 26.5853 120.495 26.0103C121.449 25.4221 122.273 24.7425 122.965 23.9714C123.671 23.2003 124.22 22.3377 124.612 21.3836C125.004 20.4165 125.2 19.3578 125.2 18.2077C125.2 17.0445 125.004 15.9859 124.612 15.0318C124.22 14.0646 123.671 13.1955 122.965 12.4244C122.273 11.6533 121.449 10.9802 120.495 10.4051C119.554 9.83008 118.522 9.35303 117.398 8.97401C116.287 8.58193 115.117 8.29439 113.888 8.11142C112.66 7.91537 111.418 7.81735 110.164 7.81735C108.909 7.81735 107.667 7.91537 106.439 8.11142C105.21 8.29439 104.04 8.58193 102.93 8.97401C101.819 9.35303 100.786 9.83661 99.832 10.4247C98.891 10.9998 98.0676 11.6729 97.3619 12.444C96.6692 13.2151 96.1268 14.0842 95.7347 15.0514C95.3426 16.0055 95.1466 17.0576 95.1466 18.2077Z" fill="white"/>
<path d="M23.7998 41.6557H18.3302L7.39087 65.8672H1.88203L12.8213 41.6557H5.86173L7.92019 37.1271H25.8583L23.7998 41.6557ZM60.5879 37.1271V65.8672H55.3339V52.8694C55.1117 53.0786 54.8699 53.2419 54.6086 53.3596C54.3602 53.4641 54.04 53.5425 53.6479 53.5948C53.2559 53.6471 52.7657 53.6798 52.1776 53.6928C51.6025 53.7059 50.8706 53.7124 49.9819 53.7124H41.4148C38.7486 53.7255 35.6968 53.732 32.2595 53.732V56.0846C32.2595 57.1432 32.2268 58.0908 32.1615 58.9272C32.0961 59.7506 31.9589 60.5021 31.7498 61.1817C31.5537 61.8613 31.2662 62.4952 30.8872 63.0834C30.5212 63.6584 30.0311 64.2269 29.4169 64.7889C28.7503 65.4032 27.9988 65.8541 27.1623 66.1416C26.339 66.4423 25.4894 66.5926 24.6138 66.5926C23.7381 66.5926 22.882 66.4423 22.0456 66.1416C21.2091 65.8541 20.4642 65.4228 19.8107 64.8478C19.1572 64.2727 18.6279 63.5604 18.2227 62.7109C17.8306 61.8483 17.6346 60.8485 17.6346 59.7114C17.6346 58.9403 17.7653 58.0712 18.0267 57.104C18.2881 56.1238 18.7586 55.1566 19.4382 54.2025C20.1309 53.2354 21.0719 52.3467 22.2612 51.5363C23.4506 50.713 24.9732 50.0725 26.8291 49.6151V37.1271H32.2595V49.2426C32.5732 49.2165 32.8542 49.2034 33.1025 49.2034C33.3508 49.1903 33.6514 49.1838 34.0043 49.1838L51.2758 49.2034C51.8117 49.2034 52.2822 49.1903 52.6873 49.1642C53.0925 49.125 53.4454 49.027 53.746 48.8701C54.0466 48.7002 54.2949 48.4519 54.4909 48.1252C54.7 47.7854 54.8634 47.3149 54.981 46.7137C55.1117 46.0994 55.2032 45.3348 55.2555 44.4199C55.3078 43.5051 55.3339 42.3876 55.3339 41.0676V37.1271H60.5879ZM25.7116 60.9465C25.8946 60.7504 26.0514 60.5021 26.1821 60.2015C26.3128 59.9009 26.4239 59.5807 26.5154 59.2409C26.6069 58.888 26.6722 58.5221 26.7114 58.143C26.7637 57.764 26.8029 57.3915 26.8291 57.0256C26.8552 56.5943 26.8683 56.1499 26.8683 55.6925C26.8683 55.235 26.8552 54.7711 26.8291 54.3006C26.2409 54.4966 25.6789 54.7515 25.1431 55.0651C24.6203 55.3657 24.1629 55.7317 23.7708 56.163C23.3787 56.5943 23.065 57.0975 22.8298 57.6725C22.6076 58.2476 22.4965 58.8945 22.4965 59.6134C22.4965 60.3061 22.6729 60.8092 23.0258 61.1229C23.3787 61.4235 23.7708 61.5738 24.2021 61.5738C24.4896 61.5738 24.7641 61.5215 25.0255 61.417C25.2999 61.2994 25.5286 61.1425 25.7116 60.9465ZM75.223 36.9702C76.2817 36.9702 77.3403 37.114 78.3989 37.4015C79.4576 37.6891 80.4705 38.1138 81.4376 38.6758C82.4178 39.2378 83.3262 39.937 84.1626 40.7735C84.9991 41.5969 85.7245 42.5444 86.3387 43.6161C86.953 44.6879 87.4366 45.8903 87.7895 47.2234C88.1423 48.5434 88.3188 49.9745 88.3188 51.5167C88.3188 53.0851 88.1423 54.5358 87.7895 55.8689C87.4366 57.202 86.953 58.4044 86.3387 59.4761C85.7245 60.5478 84.9991 61.4954 84.1626 62.3188C83.3262 63.1422 82.4178 63.8283 81.4376 64.3773C80.4705 64.9262 79.4576 65.3444 78.3989 65.6319C77.3403 65.9064 76.2817 66.0436 75.223 66.0436C74.1644 66.0436 73.0992 65.9064 72.0275 65.6319C70.9689 65.3444 69.9494 64.9262 68.9692 64.3773C68.002 63.8283 67.1002 63.1422 66.2638 62.3188C65.4273 61.4954 64.702 60.5478 64.0877 59.4761C63.4734 58.4044 62.9898 57.202 62.637 55.8689C62.2841 54.5358 62.1076 53.0851 62.1076 51.5167C62.1076 49.9615 62.2841 48.5238 62.637 47.2038C62.9898 45.8837 63.4734 44.6879 64.0877 43.6161C64.702 42.5444 65.4273 41.5969 66.2638 40.7735C67.1002 39.937 68.002 39.2378 68.9692 38.6758C69.9494 38.1138 70.9689 37.6891 72.0275 37.4015C73.0992 37.114 74.1644 36.9702 75.223 36.9702ZM75.223 62.0051C76.2555 61.992 77.2357 61.7633 78.1637 61.319C79.0916 60.8615 79.9019 60.195 80.5946 59.3193C81.3004 58.4306 81.8559 57.3393 82.261 56.0454C82.6792 54.7384 82.8884 53.2289 82.8884 51.5167C82.8884 49.7915 82.6792 48.282 82.261 46.9881C81.8559 45.6812 81.3004 44.5898 80.5946 43.7142C79.9019 42.8385 79.0916 42.1785 78.1637 41.7341C77.2357 41.2767 76.2555 41.0414 75.223 41.0284C74.1905 41.0414 73.2038 41.2767 72.2627 41.7341C71.3348 42.1785 70.518 42.8385 69.8122 43.7142C69.1064 44.5898 68.5444 45.6812 68.1262 46.9881C67.708 48.282 67.4989 49.7915 67.4989 51.5167C67.4989 53.2289 67.708 54.7384 68.1262 56.0454C68.5444 57.3393 69.1064 58.4306 69.8122 59.3193C70.518 60.195 71.3348 60.8615 72.2627 61.319C73.2038 61.7633 74.1905 61.992 75.223 62.0051ZM107.149 59.1233C106.64 60.195 106.084 61.1294 105.483 61.9267C104.895 62.7109 104.287 63.3774 103.66 63.9263C103.032 64.4622 102.392 64.9 101.738 65.2398C101.085 65.5797 100.438 65.841 99.7976 66.024C99.1702 66.2201 98.5494 66.3508 97.9352 66.4161C97.3339 66.4815 96.7654 66.5141 96.2296 66.5141C95.4977 66.5141 94.7396 66.3834 93.9555 66.122C93.1713 65.8737 92.4328 65.4882 91.7401 64.9654C91.0605 64.4295 90.4593 63.763 89.9365 62.9657C89.4268 62.1685 89.1001 61.3647 88.9563 60.5544C88.8126 59.7441 88.7407 59.0383 88.7407 58.4371C88.7407 57.8098 88.8126 56.9798 88.9563 55.9473C89.1132 54.9018 89.5706 53.536 90.3286 51.85C90.6423 51.1443 90.9756 50.3993 91.3285 49.6151C91.6944 48.8179 92.0604 48.0075 92.4263 47.1842C92.8053 46.3608 93.1778 45.5439 93.5438 44.7336C93.9228 43.9102 94.2822 43.126 94.622 42.3811C95.4062 40.6297 96.2034 38.8784 97.0137 37.1271H102.954L97.2686 49.3014C96.3537 51.275 95.6349 53.0328 95.1121 54.575C94.5893 56.1042 94.3083 57.1694 94.2691 57.7706C94.2299 58.3587 94.2103 58.7181 94.2103 58.8488C94.2103 59.7114 94.4064 60.3975 94.7984 60.9073C95.2036 61.4039 95.8898 61.6522 96.8569 61.6522C97.7195 61.6522 98.471 61.4627 99.1114 61.0837C99.7649 60.7047 100.327 60.2407 100.797 59.6918C101.268 59.1429 101.66 58.5678 101.974 57.9666C102.287 57.3654 102.549 56.8426 102.758 56.3982L111.737 37.1271H117.5L111.443 50.4581L107.149 59.1233ZM134.331 49.968H139.017C139.932 49.968 140.905 49.9745 141.938 49.9876C142.983 49.9876 144.062 49.9876 145.172 49.9876H154.21V65.8868H149.525V60.8288C148.701 61.6261 147.793 62.3776 146.8 63.0834C145.806 63.776 144.702 64.3838 143.486 64.9066C142.271 65.4294 140.931 65.841 139.468 66.1416C138.017 66.4423 136.416 66.5926 134.664 66.5926C132.482 66.5926 130.469 66.39 128.626 65.9848C126.783 65.5797 125.111 65.0242 123.608 64.3184C122.118 63.5996 120.804 62.7501 119.667 61.7699C118.53 60.7766 117.576 59.6983 116.805 58.5351C116.047 57.3589 115.472 56.1172 115.08 54.8103C114.688 53.5033 114.491 52.1768 114.491 50.8306C114.491 49.4713 114.753 48.1709 115.276 46.9293C115.798 45.6877 116.524 44.5376 117.452 43.4789C118.38 42.4072 119.491 41.4335 120.785 40.5579C122.078 39.6822 123.496 38.9372 125.039 38.323C126.581 37.7087 128.221 37.2382 129.959 36.9114C131.711 36.5716 133.501 36.4017 135.331 36.4017C137.135 36.4017 138.873 36.5912 140.546 36.9702C142.219 37.3362 143.787 37.8524 145.251 38.519C146.728 39.1855 148.067 39.9763 149.27 40.8911C150.485 41.7929 151.531 42.7732 152.406 43.8318L147.956 46.5372C147.839 46.3934 147.636 46.1647 147.349 45.8511C147.061 45.5243 146.675 45.1649 146.192 44.7728C145.721 44.3677 145.14 43.956 144.447 43.5377C143.767 43.1064 142.964 42.7209 142.036 42.3811C141.121 42.0282 140.075 41.7407 138.899 41.5185C137.723 41.2832 136.416 41.1656 134.978 41.1656C132.495 41.1656 130.306 41.4662 128.411 42.0674C126.516 42.6686 124.928 43.4658 123.647 44.4591C122.366 45.4394 121.399 46.5568 120.745 47.8115C120.092 49.0662 119.765 50.3535 119.765 51.6736C119.765 51.6997 119.765 51.7259 119.765 51.752C119.765 53.0328 120.079 54.294 120.706 55.5356C121.333 56.7773 122.268 57.8947 123.51 58.888C124.751 59.8682 126.287 60.6589 128.117 61.2601C129.946 61.8613 132.057 62.1619 134.449 62.1619C135.416 62.1619 136.403 62.077 137.409 61.9071C138.415 61.7372 139.396 61.4889 140.35 61.1621C141.304 60.8354 142.219 60.4433 143.094 59.9859C143.983 59.5284 144.787 59.0122 145.506 58.4371C146.238 57.849 146.871 57.2151 147.407 56.5355C147.943 55.8428 148.342 55.1109 148.603 54.3398H134.37C133.952 54.3398 133.442 54.3659 132.841 54.4182C132.24 54.4574 131.593 54.5489 130.9 54.6927C130.221 54.8234 129.574 55.0063 128.96 55.2416C128.358 55.4768 127.868 55.7709 127.489 56.1238L124.372 53.0067C124.869 52.5362 125.418 52.1375 126.019 51.8108C126.62 51.4841 127.241 51.2096 127.881 50.9874C128.522 50.7522 129.162 50.5692 129.803 50.4385C130.443 50.3078 131.051 50.2098 131.626 50.1444C132.201 50.066 132.724 50.0203 133.194 50.0072C133.665 49.9811 134.044 49.968 134.331 49.968ZM173.472 37.1271V65.8672H168.081V53.732H162.023V65.8672H156.632V37.1271H162.023V49.2034H168.081V37.1271H173.472ZM189.715 37.1271V41.6557H184.696V65.8672H179.54V41.6557H174.541V37.1271H189.715ZM214.465 48.6349C215.72 48.4911 216.89 48.3931 217.975 48.3408C219.073 48.2755 220.112 48.2428 221.092 48.2428C223.64 48.2428 225.764 48.4388 227.463 48.8309C229.162 49.223 230.522 49.7523 231.541 50.4189C232.573 51.0724 233.305 51.8304 233.737 52.693C234.168 53.5556 234.39 54.4509 234.403 55.3788C234.403 55.4311 234.403 55.4768 234.403 55.516C234.403 56.4048 234.279 57.2935 234.031 58.1822C233.782 59.071 233.345 59.914 232.717 60.7112C232.09 61.5085 231.24 62.2469 230.169 62.9265C229.11 63.5931 227.77 64.1681 226.15 64.6517C224.542 65.1353 222.627 65.5143 220.406 65.7888C218.184 66.0502 215.603 66.1809 212.662 66.1809C210.492 66.1809 208.414 66.0632 206.428 65.828C204.454 65.5797 202.611 65.2725 200.899 64.9066C199.187 64.5406 197.625 64.142 196.214 63.7107C194.815 63.2794 193.606 62.8742 192.587 62.4952C191.581 62.1162 190.783 61.796 190.195 61.5346C189.62 61.2601 189.293 61.1033 189.215 61.0641L191.411 56.6531C191.424 56.6531 191.679 56.7707 192.175 57.006C192.685 57.2282 193.397 57.5026 194.312 57.8294C195.227 58.1561 196.325 58.5155 197.606 58.9076C198.887 59.2866 200.311 59.6395 201.879 59.9663C203.448 60.293 205.134 60.5675 206.937 60.7896C208.754 61.0118 210.649 61.1229 212.623 61.1229C215.341 61.1229 217.654 61.0314 219.563 60.8485C221.471 60.6524 223.052 60.3975 224.307 60.0839C225.562 59.7702 226.529 59.4108 227.208 59.0056C227.901 58.6005 228.372 58.1953 228.62 57.7902C228.868 57.385 228.992 57.006 228.992 56.6531C228.992 56.5485 228.966 56.359 228.914 56.0846C228.875 55.8101 228.724 55.4703 228.463 55.0651C228.241 54.7123 227.914 54.4182 227.483 54.1829C227.052 53.9346 226.535 53.7451 225.934 53.6144C225.346 53.4706 224.679 53.3726 223.934 53.3203C223.189 53.255 222.386 53.2223 221.523 53.2223C220.242 53.2223 218.857 53.2746 217.367 53.3792C215.89 53.4706 214.361 53.5752 212.78 53.6928C211.198 53.8105 209.597 53.9215 207.976 54.0261C206.356 54.1176 204.774 54.1633 203.232 54.1633C201.964 54.1633 200.736 54.1176 199.547 54.0261C198.37 53.9346 197.266 53.7778 196.233 53.5556C195.201 53.3334 194.26 53.0328 193.41 52.6538C192.561 52.2748 191.829 51.7977 191.215 51.2227C190.6 50.6476 190.123 49.9615 189.784 49.1642C189.457 48.367 189.293 47.439 189.293 46.3804C189.293 45.6223 189.411 44.8643 189.646 44.1063C189.882 43.3482 190.293 42.6229 190.881 41.9302C191.483 41.2244 192.293 40.5709 193.312 39.9697C194.345 39.3555 195.652 38.8131 197.233 38.3426C198.828 37.872 200.729 37.493 202.938 37.2055C205.16 36.918 207.754 36.7415 210.721 36.6762C211.074 36.6762 211.42 36.6762 211.76 36.6762C213.564 36.6762 215.374 36.7677 217.191 36.9506C219.02 37.1336 220.798 37.3885 222.523 37.7152C224.261 38.042 225.836 38.4079 227.248 38.8131C228.672 39.2182 229.901 39.5972 230.933 39.9501C231.966 40.303 232.776 40.6101 233.364 40.8715C233.965 41.1199 234.299 41.2636 234.364 41.3028L232.286 45.6746C232.273 45.6615 232.018 45.5439 231.521 45.3217C231.038 45.0865 230.352 44.799 229.463 44.4591C228.587 44.1193 227.522 43.7599 226.267 43.3809C225.013 42.9888 223.614 42.6359 222.072 42.3223C220.543 41.9955 218.955 41.7407 217.308 41.5577C215.661 41.3747 214.028 41.2832 212.407 41.2832C212.08 41.2832 211.754 41.2898 211.427 41.3028C208.878 41.3551 206.676 41.4727 204.82 41.6557C202.964 41.8256 201.396 42.0478 200.115 42.3223C198.834 42.5967 197.808 42.9104 197.037 43.2633C196.266 43.6161 195.691 43.9952 195.312 44.4003C194.933 44.7924 194.73 45.1192 194.704 45.3805C194.678 45.6419 194.665 45.8184 194.665 45.9099C194.665 46.2497 194.73 46.596 194.861 46.9489C195.044 47.4194 195.377 47.8115 195.861 48.1252C196.344 48.4388 196.939 48.6937 197.645 48.8897C198.364 49.0858 199.187 49.2296 200.115 49.321C201.056 49.3995 202.069 49.4387 203.154 49.4387C204.814 49.4387 206.604 49.3602 208.525 49.2034C210.447 49.0466 212.427 48.8571 214.465 48.6349Z" fill="white"/>
<path d="M112.631 33.369C112.912 33.3777 113.193 33.382 113.476 33.382C115.306 33.382 117.083 33.1991 118.808 32.8331C120.547 32.4802 122.18 31.9771 123.71 31.3236C125.239 30.6701 126.637 29.8859 127.905 28.9711C129.173 28.0431 130.264 27.0237 131.179 25.9128C132.107 24.7888 132.826 23.5864 133.335 22.3056C133.845 21.0117 134.1 19.6721 134.1 18.2867C134.1 16.9014 133.845 15.5683 133.335 14.2874C132.826 12.9936 132.107 11.7912 131.179 10.6803C130.264 9.55627 129.173 8.53685 127.905 7.62198C126.637 6.69404 125.239 5.90334 123.71 5.24986C122.18 4.59638 120.547 4.0932 118.808 3.74033C117.083 3.37438 115.306 3.19141 113.476 3.19141C113.193 3.19141 108.357 3.19141 107.352 3.44281L112.631 7.91063C112.906 7.90117 113.181 7.89644 113.456 7.89644C114.711 7.89644 115.953 7.99446 117.181 8.19051C118.41 8.37348 119.58 8.66101 120.69 9.05309C121.814 9.43211 122.847 9.90915 123.788 10.4842C124.742 11.0593 125.565 11.7324 126.258 12.5035C126.964 13.2746 127.513 14.1437 127.905 15.1108C128.297 16.0649 128.493 17.1235 128.493 18.2867C128.493 19.4368 128.297 20.4955 127.905 21.4626C127.513 22.4167 126.964 23.2793 126.258 24.0504C125.565 24.8215 124.742 25.5011 123.788 26.0892C122.847 26.6643 121.814 27.1479 120.69 27.54C119.58 27.919 118.41 28.2065 117.181 28.4025C115.953 28.5855 114.711 28.677 113.456 28.677C113.181 28.677 112.906 28.6726 112.631 28.6638V33.369Z" fill="white"/>
</svg>
