<svg width="468" height="153" viewBox="0 0 468 153" fill="none" xmlns="http://www.w3.org/2000/svg">
<path d="M72.6261 64H16.4036V53.5509L59.9156 15.5754H16.4036V6.84178L72.6261 6.80279V17.6808L29.543 55.2274H72.6261V64ZM86.3706 16.1992V30.6642H99.393V40.0606H86.3706V54.5256H102.161V63.961H76.4283V6.80279L102.161 6.7638V16.1992H86.3706ZM117.192 6.84178V23.4512C120.727 17.4988 125.042 13.0021 130.137 9.96092C135.231 6.91976 141.041 5.39918 147.565 5.39918C151.932 5.39918 155.909 5.88005 159.496 6.84178C163.109 7.77752 166.241 9.18114 168.892 11.0526C171.439 12.8461 173.402 14.9775 174.779 17.4469C176.183 19.9162 176.885 22.5155 176.885 25.2447C176.885 26.8303 176.638 28.4028 176.144 29.9624C175.65 31.522 174.909 33.0166 173.922 34.4462C172.96 35.8498 171.751 37.1624 170.296 38.3841C168.84 39.5797 167.151 40.6195 165.227 41.5032C163.304 42.387 161.146 43.0888 158.755 43.6086C156.39 44.1025 153.79 44.3494 150.957 44.3494C145.81 44.3494 141.106 43.6476 136.843 42.244C138.091 44.0115 139.494 45.753 141.054 47.4686C142.613 49.1581 144.342 50.6657 146.239 51.9913C148.163 53.3169 150.242 54.3957 152.478 55.2274C154.739 56.0332 157.169 56.4361 159.769 56.4361C160.626 56.4361 161.549 56.3321 162.537 56.1242C163.551 55.9162 164.577 55.6303 165.617 55.2664C166.683 54.8765 167.735 54.4086 168.775 53.8628C169.841 53.3169 170.855 52.7191 171.816 52.0693L176.885 59.5162C175.533 60.452 174.13 61.2837 172.674 62.0115C171.218 62.7393 169.75 63.3632 168.268 63.883C166.813 64.3769 165.357 64.7538 163.901 65.0137C162.472 65.2996 161.094 65.4426 159.769 65.4426C156.545 65.4426 153.53 65.0007 150.723 64.117C147.942 63.2592 145.369 62.1025 143.003 60.6469C140.638 59.1913 138.48 57.5278 136.531 55.6563C134.582 53.7848 132.814 51.8484 131.228 49.8469C129.669 47.8195 128.291 45.805 127.096 43.8036C125.9 41.8021 124.886 39.9566 124.054 38.2671C124.002 38.1631 123.924 37.9812 123.821 37.7213L133.334 30.6252C138.013 33.7444 143.887 35.3039 150.957 35.3039C153.738 35.3039 156.169 35.018 158.248 34.4462C160.353 33.8743 162.121 33.1205 163.551 32.1848C164.98 31.2231 166.046 30.1443 166.748 28.9487C167.475 27.727 167.839 26.4924 167.839 25.2447C167.839 23.997 167.475 22.7884 166.748 21.6187C166.046 20.423 165.019 19.3443 163.668 18.3826C163.018 17.9407 162.212 17.4858 161.25 17.018C160.314 16.5501 159.184 16.1212 157.858 15.7313C156.558 15.3414 155.051 15.0295 153.335 14.7956C151.646 14.5357 149.722 14.4057 147.565 14.4057C141.691 14.4057 136.622 16.0562 132.359 19.3573C128.096 22.6324 124.613 27.5711 121.91 34.1732C121.052 36.2527 120.337 38.3191 119.766 40.3725C119.194 42.426 118.726 44.3494 118.362 46.1429C118.024 47.9364 117.764 49.548 117.582 50.9776C117.4 52.3812 117.27 53.4859 117.192 54.2917V64.039H107.445V6.84178H117.192ZM219.13 5.20423C222.769 5.20423 226.304 5.56813 229.736 6.29593C233.193 6.99774 236.442 7.99846 239.483 9.2981C242.524 10.5977 245.305 12.1703 247.827 14.0158C250.348 15.8353 252.518 17.8627 254.338 20.0981C256.183 22.3075 257.613 24.6989 258.627 27.2721C259.64 29.8194 260.147 32.4707 260.147 35.2259C260.147 37.9812 259.64 40.6454 258.627 43.2187C257.613 45.766 256.183 48.1574 254.338 50.3928C252.518 52.6021 250.348 54.6296 247.827 56.4751C245.305 58.2946 242.524 59.8541 239.483 61.1538C236.442 62.4534 233.193 63.4542 229.736 64.156C226.304 64.8838 222.769 65.2477 219.13 65.2477C215.491 65.2477 211.943 64.8838 208.486 64.156C205.055 63.4542 201.819 62.4534 198.778 61.1538C195.737 59.8541 192.943 58.2946 190.395 56.4751C187.874 54.6296 185.704 52.6021 183.884 50.3928C182.065 48.1574 180.648 45.766 179.634 43.2187C178.621 40.6454 178.114 37.9812 178.114 35.2259C178.114 32.4707 178.621 29.8194 179.634 27.2721C180.648 24.6989 182.065 22.3075 183.884 20.0981C185.704 17.8627 187.874 15.8353 190.395 14.0158C192.943 12.1703 195.737 10.5977 198.778 9.2981C201.819 7.99846 205.055 6.99774 208.486 6.29593C211.943 5.56813 215.491 5.20423 219.13 5.20423ZM189.226 35.2259C189.226 37.5133 189.616 39.6187 190.395 41.5422C191.175 43.4657 192.254 45.1942 193.632 46.7278C195.035 48.2613 196.673 49.6 198.544 50.7437C200.442 51.8873 202.495 52.8491 204.704 53.6289C206.914 54.3827 209.24 54.9545 211.684 55.3444C214.127 55.7083 216.596 55.8902 219.091 55.8902C221.587 55.8902 224.056 55.7083 226.499 55.3444C228.943 54.9545 231.269 54.3827 233.479 53.6289C235.714 52.8491 237.767 51.8873 239.639 50.7437C241.536 49.574 243.174 48.2224 244.551 46.6888C245.955 45.1552 247.047 43.4397 247.827 41.5422C248.606 39.6187 248.996 37.5133 248.996 35.2259C248.996 32.9126 248.606 30.8072 247.827 28.9097C247.047 26.9862 245.955 25.2577 244.551 23.7241C243.174 22.1905 241.536 20.8519 239.639 19.7082C237.767 18.5645 235.714 17.6158 233.479 16.862C231.269 16.0822 228.943 15.5104 226.499 15.1465C224.056 14.7566 221.587 14.5617 219.091 14.5617C216.596 14.5617 214.127 14.7566 211.684 15.1465C209.24 15.5104 206.914 16.0822 204.704 16.862C202.495 17.6158 200.442 18.5775 198.544 19.7472C196.673 20.8909 195.035 22.2295 193.632 23.7631C192.254 25.2967 191.175 27.0252 190.395 28.9487C189.616 30.8462 189.226 32.9386 189.226 35.2259Z" fill="white"/>
<path d="M47.3329 81.8483H36.4549L14.6989 130H3.74297L25.499 81.8483H11.6578L15.7517 72.8418H51.4268L47.3329 81.8483ZM120.497 72.8418V130H110.048V104.15C109.606 104.566 109.125 104.891 108.605 105.125C108.111 105.333 107.475 105.489 106.695 105.593C105.915 105.697 104.94 105.762 103.771 105.788C102.627 105.814 101.171 105.827 99.4038 105.827H82.3655C77.063 105.853 70.9937 105.866 64.1576 105.866V110.544C64.1576 112.65 64.0926 114.534 63.9626 116.198C63.8327 117.835 63.5597 119.33 63.1438 120.682C62.754 122.033 62.1821 123.294 61.4283 124.464C60.7005 125.607 59.7258 126.738 58.5041 127.856C57.1785 129.077 55.6839 129.974 54.0204 130.546C52.3828 131.144 50.6933 131.443 48.9518 131.443C47.2102 131.443 45.5077 131.144 43.8442 130.546C42.1806 129.974 40.699 129.116 39.3994 127.973C38.0998 126.829 37.0471 125.412 36.2413 123.723C35.4615 122.007 35.0716 120.019 35.0716 117.757C35.0716 116.224 35.3315 114.495 35.8514 112.572C36.3712 110.622 37.307 108.699 38.6586 106.801C40.0362 104.878 41.9077 103.11 44.2731 101.499C46.6384 99.8613 49.6666 98.5877 53.3575 97.6779V72.8418H64.1576V96.9371C64.7814 96.8851 65.3402 96.8592 65.8341 96.8592C66.328 96.8332 66.9258 96.8202 67.6276 96.8202L101.977 96.8592C103.043 96.8592 103.979 96.8332 104.784 96.7812C105.59 96.7032 106.292 96.5082 106.89 96.1963C107.488 95.8584 107.981 95.3646 108.371 94.7147C108.787 94.0389 109.112 93.1032 109.346 91.9075C109.606 90.6859 109.788 89.1653 109.892 87.3458C109.996 85.5263 110.048 83.3039 110.048 80.6786V72.8418H120.497ZM51.1352 120.214C51.4991 119.824 51.811 119.33 52.0709 118.732C52.3308 118.134 52.5518 117.497 52.7337 116.822C52.9157 116.12 53.0456 115.392 53.1236 114.638C53.2276 113.884 53.3056 113.144 53.3575 112.416C53.4095 111.558 53.4355 110.674 53.4355 109.765C53.4355 108.855 53.4095 107.932 53.3575 106.996C52.1879 107.386 51.0702 107.893 50.0045 108.517C48.9648 109.115 48.055 109.843 47.2752 110.7C46.4954 111.558 45.8716 112.559 45.4037 113.702C44.9619 114.846 44.7409 116.133 44.7409 117.562C44.7409 118.94 45.0918 119.941 45.7936 120.565C46.4954 121.162 47.2752 121.461 48.133 121.461C48.7048 121.461 49.2507 121.357 49.7705 121.149C50.3164 120.916 50.7713 120.604 51.1352 120.214ZM149.603 72.5299C151.709 72.5299 153.814 72.8158 155.92 73.3876C158.025 73.9595 160.039 74.8042 161.963 75.9219C163.912 77.0396 165.719 78.4302 167.382 80.0938C169.046 81.7313 170.488 83.6158 171.71 85.7472C172.932 87.8786 173.894 90.27 174.595 92.9212C175.297 95.5465 175.648 98.3927 175.648 101.46C175.648 104.579 175.297 107.464 174.595 110.115C173.894 112.767 172.932 115.158 171.71 117.29C170.488 119.421 169.046 121.305 167.382 122.943C165.719 124.58 163.912 125.945 161.963 127.037C160.039 128.129 158.025 128.96 155.92 129.532C153.814 130.078 151.709 130.351 149.603 130.351C147.498 130.351 145.379 130.078 143.248 129.532C141.143 128.96 139.115 128.129 137.166 127.037C135.242 125.945 133.449 124.58 131.785 122.943C130.122 121.305 128.679 119.421 127.457 117.29C126.236 115.158 125.274 112.767 124.572 110.115C123.87 107.464 123.519 104.579 123.519 101.46C123.519 98.3667 123.87 95.5075 124.572 92.8822C125.274 90.257 126.236 87.8786 127.457 85.7472C128.679 83.6158 130.122 81.7313 131.785 80.0938C133.449 78.4302 135.242 77.0396 137.166 75.9219C139.115 74.8042 141.143 73.9595 143.248 73.3876C145.379 72.8158 147.498 72.5299 149.603 72.5299ZM149.603 122.319C151.657 122.293 153.606 121.838 155.452 120.954C157.297 120.045 158.909 118.719 160.286 116.978C161.69 115.21 162.795 113.04 163.6 110.466C164.432 107.867 164.848 104.865 164.848 101.46C164.848 98.0288 164.432 95.0267 163.6 92.4534C162.795 89.8541 161.69 87.6837 160.286 85.9422C158.909 84.2006 157.297 82.888 155.452 82.0043C153.606 81.0945 151.657 80.6266 149.603 80.6006C147.55 80.6266 145.587 81.0945 143.716 82.0043C141.87 82.888 140.246 84.2006 138.842 85.9422C137.439 87.6837 136.321 89.8541 135.489 92.4534C134.657 95.0267 134.241 98.0288 134.241 101.46C134.241 104.865 134.657 107.867 135.489 110.466C136.321 113.04 137.439 115.21 138.842 116.978C140.246 118.719 141.87 120.045 143.716 120.954C145.587 121.838 147.55 122.293 149.603 122.319ZM213.098 116.588C212.084 118.719 210.98 120.578 209.784 122.163C208.614 123.723 207.406 125.048 206.158 126.14C204.91 127.206 203.637 128.077 202.337 128.752C201.037 129.428 199.751 129.948 198.477 130.312C197.229 130.702 195.995 130.962 194.773 131.092C193.577 131.222 192.447 131.287 191.381 131.287C189.925 131.287 188.418 131.027 186.858 130.507C185.299 130.013 183.83 129.246 182.452 128.206C181.101 127.141 179.905 125.815 178.865 124.23C177.852 122.644 177.202 121.045 176.916 119.434C176.63 117.822 176.487 116.419 176.487 115.223C176.487 113.975 176.63 112.325 176.916 110.271C177.228 108.192 178.138 105.476 179.645 102.123C180.269 100.719 180.932 99.2375 181.634 97.6779C182.361 96.0924 183.089 94.4808 183.817 92.8433C184.571 91.2057 185.312 89.5812 186.039 87.9696C186.793 86.3321 187.508 84.7725 188.184 83.2909C189.743 79.8079 191.329 76.3248 192.941 72.8418H204.754L193.447 97.0541C191.628 100.979 190.198 104.475 189.159 107.542C188.119 110.583 187.56 112.702 187.482 113.897C187.404 115.067 187.365 115.782 187.365 116.042C187.365 117.757 187.755 119.122 188.535 120.136C189.341 121.123 190.705 121.617 192.629 121.617C194.344 121.617 195.839 121.24 197.112 120.487C198.412 119.733 199.53 118.81 200.465 117.718C201.401 116.627 202.181 115.483 202.805 114.287C203.429 113.092 203.949 112.052 204.364 111.168L222.221 72.8418H233.684L221.637 99.3545L213.098 116.588ZM267.157 98.3797H276.476C278.295 98.3797 280.232 98.3927 282.285 98.4187C284.365 98.4187 286.509 98.4187 288.718 98.4187H306.692V130.039H297.374V119.98C295.736 121.565 293.93 123.06 291.955 124.464C289.979 125.841 287.783 127.05 285.365 128.09C282.948 129.129 280.284 129.948 277.373 130.546C274.487 131.144 271.303 131.443 267.82 131.443C263.479 131.443 259.476 131.04 255.811 130.234C252.147 129.428 248.819 128.323 245.83 126.92C242.867 125.49 240.255 123.801 237.993 121.851C235.732 119.876 233.835 117.731 232.301 115.418C230.793 113.079 229.65 110.609 228.87 108.01C228.09 105.411 227.7 102.773 227.7 100.095C227.7 97.392 228.22 94.8057 229.26 92.3364C230.3 89.8671 231.742 87.5797 233.588 85.4743C235.433 83.3429 237.643 81.4064 240.216 79.6649C242.789 77.9234 245.609 76.4418 248.676 75.2201C251.744 73.9985 255.006 73.0627 258.463 72.4129C261.946 71.7371 265.507 71.3992 269.146 71.3992C272.733 71.3992 276.19 71.7761 279.517 72.5299C282.844 73.2577 285.963 74.2844 288.874 75.61C291.812 76.9357 294.476 78.5082 296.867 80.3277C299.284 82.1212 301.364 84.0707 303.105 86.1761L294.255 91.5566C294.021 91.2707 293.618 90.8158 293.046 90.192C292.474 89.5422 291.708 88.8274 290.746 88.0476C289.81 87.2418 288.653 86.423 287.276 85.5913C285.924 84.7335 284.326 83.9667 282.48 83.2909C280.661 82.5891 278.581 82.0172 276.242 81.5754C273.902 81.1075 271.303 80.8736 268.444 80.8736C263.505 80.8736 259.152 81.4714 255.383 82.6671C251.614 83.8627 248.456 85.4483 245.908 87.4238C243.361 89.3732 241.437 91.5956 240.138 94.0909C238.838 96.5862 238.188 99.1465 238.188 101.772C238.188 101.824 238.188 101.876 238.188 101.928C238.188 104.475 238.812 106.983 240.06 109.453C241.307 111.922 243.166 114.144 245.635 116.12C248.105 118.069 251.159 119.642 254.798 120.838C258.437 122.033 262.635 122.631 267.391 122.631C269.315 122.631 271.277 122.462 273.279 122.124C275.28 121.786 277.23 121.292 279.127 120.643C281.025 119.993 282.844 119.213 284.586 118.303C286.353 117.393 287.952 116.367 289.381 115.223C290.837 114.053 292.097 112.793 293.163 111.441C294.229 110.064 295.022 108.608 295.542 107.074H267.235C266.404 107.074 265.39 107.126 264.194 107.23C262.999 107.308 261.712 107.49 260.334 107.776C258.983 108.036 257.696 108.4 256.474 108.868C255.279 109.336 254.304 109.921 253.55 110.622L247.351 104.423C248.339 103.487 249.43 102.695 250.626 102.045C251.822 101.395 253.056 100.849 254.33 100.407C255.604 99.9393 256.877 99.5754 258.151 99.3155C259.424 99.0555 260.633 98.8606 261.777 98.7306C262.921 98.5747 263.96 98.4837 264.896 98.4577C265.832 98.4057 266.586 98.3797 267.157 98.3797ZM345 72.8418V130H334.278V105.866H322.23V130H311.508V72.8418H322.23V96.8592H334.278V72.8418H345ZM377.304 72.8418V81.8483H367.322V130H357.068V81.8483H347.126V72.8418H377.304ZM426.528 95.7285C429.024 95.4425 431.35 95.2476 433.507 95.1436C435.691 95.0137 437.757 94.9487 439.707 94.9487C444.775 94.9487 448.999 95.3386 452.378 96.1184C455.757 96.8981 458.46 97.9508 460.488 99.2765C462.541 100.576 463.997 102.084 464.855 103.799C465.712 105.515 466.154 107.295 466.18 109.141C466.18 109.245 466.18 109.336 466.18 109.414C466.18 111.181 465.933 112.949 465.439 114.716C464.946 116.484 464.075 118.16 462.827 119.746C461.58 121.331 459.89 122.8 457.759 124.152C455.653 125.477 452.989 126.621 449.766 127.583C446.569 128.544 442.761 129.298 438.342 129.844C433.923 130.364 428.79 130.624 422.941 130.624C418.626 130.624 414.494 130.39 410.543 129.922C406.618 129.428 402.953 128.817 399.548 128.09C396.143 127.362 393.036 126.569 390.229 125.711C387.448 124.853 385.044 124.048 383.016 123.294C381.015 122.54 379.429 121.903 378.26 121.383C377.116 120.838 376.466 120.526 376.31 120.448L380.677 111.675C380.703 111.675 381.21 111.909 382.197 112.377C383.211 112.819 384.628 113.365 386.447 114.014C388.267 114.664 390.45 115.379 392.997 116.159C395.545 116.913 398.378 117.614 401.497 118.264C404.616 118.914 407.969 119.46 411.556 119.902C415.169 120.344 418.938 120.565 422.863 120.565C428.27 120.565 432.87 120.383 436.665 120.019C440.46 119.629 443.605 119.122 446.101 118.498C448.596 117.874 450.52 117.16 451.871 116.354C453.249 115.548 454.185 114.742 454.678 113.936C455.172 113.131 455.419 112.377 455.419 111.675C455.419 111.467 455.367 111.09 455.263 110.544C455.185 109.999 454.886 109.323 454.367 108.517C453.925 107.815 453.275 107.23 452.417 106.762C451.559 106.269 450.533 105.892 449.337 105.632C448.167 105.346 446.842 105.151 445.36 105.047C443.878 104.917 442.28 104.852 440.564 104.852C438.017 104.852 435.262 104.956 432.299 105.164C429.361 105.346 426.32 105.554 423.175 105.788C420.03 106.022 416.846 106.243 413.623 106.451C410.4 106.632 407.255 106.723 404.187 106.723C401.666 106.723 399.223 106.632 396.857 106.451C394.518 106.269 392.322 105.957 390.268 105.515C388.215 105.073 386.343 104.475 384.654 103.721C382.964 102.967 381.509 102.019 380.287 100.875C379.065 99.7314 378.117 98.3667 377.441 96.7812C376.791 95.1956 376.466 93.3501 376.466 91.2447C376.466 89.7371 376.7 88.2295 377.168 86.7219C377.636 85.2144 378.454 83.7718 379.624 82.3941C380.82 80.9905 382.431 79.6909 384.459 78.4952C386.512 77.2736 389.112 76.1949 392.257 75.2591C395.428 74.3234 399.21 73.5696 403.603 72.9977C408.021 72.4259 413.181 72.075 419.081 71.945C419.783 71.945 420.472 71.945 421.148 71.945C424.735 71.945 428.335 72.127 431.948 72.4909C435.587 72.8548 439.122 73.3616 442.553 74.0115C446.01 74.6613 449.142 75.3891 451.949 76.1949C454.782 77.0006 457.226 77.7544 459.279 78.4562C461.333 79.158 462.944 79.7689 464.114 80.2887C465.309 80.7826 465.972 81.0685 466.102 81.1465L461.969 89.8411C461.943 89.8151 461.437 89.5812 460.449 89.1393C459.487 88.6714 458.122 88.0996 456.355 87.4238C454.613 86.7479 452.495 86.0331 450 85.2793C447.504 84.4996 444.723 83.7978 441.656 83.1739C438.615 82.5241 435.457 82.0172 432.182 81.6533C428.907 81.2894 425.657 81.1075 422.434 81.1075C421.785 81.1075 421.135 81.1205 420.485 81.1465C415.416 81.2505 411.036 81.4844 407.345 81.8483C403.655 82.1862 400.535 82.6281 397.988 83.1739C395.441 83.7198 393.4 84.3436 391.867 85.0454C390.333 85.7472 389.19 86.501 388.436 87.3068C387.682 88.0866 387.279 88.7364 387.227 89.2562C387.175 89.7761 387.149 90.127 387.149 90.309C387.149 90.9848 387.279 91.6736 387.539 92.3754C387.903 93.3111 388.566 94.0909 389.527 94.7147C390.489 95.3386 391.672 95.8454 393.075 96.2353C394.505 96.6252 396.143 96.9111 397.988 97.0931C399.86 97.249 401.874 97.327 404.031 97.327C407.332 97.327 410.894 97.1711 414.714 96.8592C418.535 96.5472 422.473 96.1703 426.528 95.7285Z" fill="white"/>
<path d="M224.001 65.0174C224.558 65.0347 225.118 65.0434 225.68 65.0434C229.319 65.0434 232.854 64.6795 236.285 63.9517C239.742 63.2499 242.991 62.2492 246.033 60.9496C249.074 59.6499 251.855 58.0903 254.376 56.2708C256.898 54.4254 259.068 52.3979 260.887 50.1885C262.733 47.9531 264.163 45.5618 265.176 43.0145C266.19 40.4412 266.697 37.777 266.697 35.0217C266.697 32.2665 266.19 29.6152 265.176 27.0679C264.163 24.4946 262.733 22.1033 260.887 19.8939C259.068 17.6585 256.898 15.6311 254.376 13.8116C251.855 11.9661 249.074 10.3935 246.033 9.09387C242.991 7.79423 239.742 6.7935 236.285 6.0917C232.854 5.3639 229.319 5 225.68 5C225.118 5 215.5 5 213.5 5.5L224.001 14.3856C224.546 14.3668 225.093 14.3574 225.641 14.3574C228.136 14.3574 230.606 14.5524 233.049 14.9423C235.492 15.3062 237.819 15.878 240.028 16.6578C242.264 17.4116 244.317 18.3603 246.188 19.504C248.086 20.6477 249.723 21.9863 251.101 23.5199C252.505 25.0535 253.596 26.782 254.376 28.7055C255.156 30.6029 255.546 32.7083 255.546 35.0217C255.546 37.3091 255.156 39.4145 254.376 41.338C253.596 43.2354 252.505 44.951 251.101 46.4845C249.723 48.0181 248.086 49.3697 246.188 50.5394C244.317 51.6831 242.264 52.6448 240.028 53.4246C237.819 54.1784 235.492 54.7503 233.049 55.1402C230.606 55.5041 228.136 55.686 225.641 55.686C225.093 55.686 224.546 55.6772 224.001 55.6597V65.0174Z" fill="white"/>
</svg>
