<svg width="465" height="41" viewBox="0 0 465 41" fill="none" xmlns="http://www.w3.org/2000/svg">
<path d="M35.7942 37.823H0V31.1705L27.702 6.99329H0V1.43303L35.7942 1.40821V8.33372L8.36522 32.2379H35.7942V37.823Z" fill="url(#paint0_linear_414_85)"/>
<path d="M44.5447 7.39046V16.5996H52.8354V22.5819H44.5447V31.7911H54.5978V37.7982H38.2149V1.40821L54.5978 1.38338V7.39046H44.5447Z" fill="url(#paint1_linear_414_85)"/>
<path d="M64.1675 1.43303V12.0075C66.418 8.21788 69.1651 5.355 72.4086 3.41884C75.6521 1.48267 79.3506 0.514592 83.5043 0.514592C86.2844 0.514592 88.8163 0.820737 91.1 1.43303C93.4002 2.02877 95.3943 2.92239 97.0823 4.11387C98.704 5.25571 99.9534 6.61268 100.83 8.18478C101.724 9.75688 102.171 11.4117 102.171 13.1493C102.171 14.1588 102.014 15.1599 101.699 16.1528C101.385 17.1457 100.913 18.0973 100.284 19.0074C99.6721 19.9011 98.9026 20.7368 97.9759 21.5145C97.0491 22.2758 95.9735 22.9377 94.7489 23.5003C93.5243 24.063 92.1508 24.5098 90.6284 24.8408C89.1225 25.1552 87.4676 25.3124 85.6638 25.3124C82.3873 25.3124 79.392 24.8656 76.6781 23.972C77.4724 25.0973 78.366 26.206 79.3589 27.2982C80.3518 28.3738 81.4523 29.3336 82.6603 30.1776C83.8849 31.0216 85.2088 31.7083 86.6319 32.2379C88.0716 32.7509 89.6189 33.0074 91.2738 33.0074C91.8199 33.0074 92.4073 32.9412 93.0362 32.8088C93.6816 32.6764 94.3352 32.4944 94.9971 32.2627C95.6756 32.0145 96.3458 31.7166 97.0078 31.3691C97.6863 31.0216 98.3317 30.641 98.9439 30.2273L102.171 34.9684C101.31 35.5641 100.417 36.0937 99.49 36.557C98.5633 37.0204 97.6283 37.4175 96.6851 37.7485C95.7584 38.0629 94.8317 38.3029 93.905 38.4684C92.9948 38.6504 92.1177 38.7414 91.2738 38.7414C89.2218 38.7414 87.3021 38.4601 85.5149 37.8975C83.7442 37.3514 82.1059 36.615 80.6 35.6882C79.0941 34.7615 77.7206 33.7024 76.4795 32.5109C75.2383 31.3195 74.1131 30.0866 73.1036 28.8124C72.1107 27.5216 71.2336 26.2391 70.4724 24.9649C69.7112 23.6906 69.0658 22.5157 68.5362 21.4401C68.5031 21.3739 68.4535 21.258 68.3873 21.0925L74.444 16.5748C77.4227 18.5606 81.1627 19.5535 85.6638 19.5535C87.4345 19.5535 88.9818 19.3715 90.3057 19.0074C91.6461 18.6434 92.7714 18.1635 93.6815 17.5677C94.5917 16.9554 95.2702 16.2687 95.717 15.5075C96.1804 14.7297 96.412 13.9436 96.412 13.1493C96.412 12.355 96.1804 11.5855 95.717 10.8408C95.2702 10.0796 94.6165 9.39281 93.756 8.78052C93.3423 8.4992 92.8293 8.2096 92.217 7.91173C91.6213 7.61386 90.9014 7.34081 90.0574 7.09259C89.23 6.84436 88.2702 6.64578 87.178 6.49684C86.1024 6.33136 84.8778 6.24862 83.5043 6.24862C79.7643 6.24862 76.5374 7.29944 73.8235 9.40109C71.1095 11.4862 68.892 14.6304 67.171 18.8337C66.6249 20.1576 66.1698 21.4732 65.8058 22.7805C65.4417 24.0878 65.1438 25.3124 64.9121 26.4542C64.697 27.5961 64.5315 28.6221 64.4157 29.5322C64.2998 30.4258 64.2171 31.1292 64.1675 31.6422V37.8478H57.9618V1.43303H64.1675Z" fill="url(#paint2_linear_414_85)"/>
<path d="M129.067 0.390479C131.383 0.390479 133.634 0.622156 135.818 1.08551C138.019 1.53232 140.088 2.16943 142.024 2.99685C143.96 3.82427 145.731 4.82545 147.336 6.00039C148.941 7.15878 150.323 8.44955 151.482 9.87272C152.656 11.2793 153.567 12.8018 154.212 14.4401C154.857 16.0618 155.18 17.7498 155.18 19.5039C155.18 21.258 154.857 22.9542 154.212 24.5925C153.567 26.2143 152.656 27.7367 151.482 29.1599C150.323 30.5665 148.941 31.8573 147.336 33.0322C145.731 34.1906 143.96 35.1835 142.024 36.0109C140.088 36.8384 138.019 37.4755 135.818 37.9223C133.634 38.3856 131.383 38.6173 129.067 38.6173C126.75 38.6173 124.491 38.3856 122.29 37.9223C120.106 37.4755 118.045 36.8384 116.109 36.0109C114.173 35.1835 112.394 34.1906 110.772 33.0322C109.167 31.8573 107.785 30.5665 106.627 29.1599C105.469 27.7367 104.567 26.2143 103.921 24.5925C103.276 22.9542 102.953 21.258 102.953 19.5039C102.953 17.7498 103.276 16.0618 103.921 14.4401C104.567 12.8018 105.469 11.2793 106.627 9.87272C107.785 8.44955 109.167 7.15878 110.772 6.00039C112.394 4.82545 114.173 3.82427 116.109 2.99685C118.045 2.16943 120.106 1.53232 122.29 1.08551C124.491 0.622156 126.75 0.390479 129.067 0.390479ZM110.028 19.5039C110.028 20.9602 110.276 22.3006 110.772 23.5252C111.269 24.7497 111.956 25.8502 112.833 26.8266C113.726 27.8029 114.769 28.6552 115.96 29.3833C117.168 30.1114 118.476 30.7237 119.882 31.2202C121.289 31.7001 122.77 32.0641 124.326 32.3124C125.881 32.544 127.453 32.6599 129.042 32.6599C130.631 32.6599 132.203 32.544 133.758 32.3124C135.314 32.0641 136.795 31.7001 138.201 31.2202C139.625 30.7237 140.932 30.1114 142.123 29.3833C143.331 28.6386 144.374 27.7781 145.251 26.8017C146.145 25.8254 146.84 24.7332 147.336 23.5252C147.833 22.3006 148.081 20.9602 148.081 19.5039C148.081 18.0311 147.833 16.6907 147.336 15.4826C146.84 14.258 146.145 13.1576 145.251 12.1812C144.374 11.2049 143.331 10.3526 142.123 9.62449C140.932 8.89636 139.625 8.29234 138.201 7.81244C136.795 7.31599 135.314 6.95192 133.758 6.72025C132.203 6.47202 130.631 6.34791 129.042 6.34791C127.453 6.34791 125.881 6.47202 124.326 6.72025C122.77 6.95192 121.289 7.31599 119.882 7.81244C118.476 8.29234 117.168 8.90464 115.96 9.64931C114.769 10.3774 113.726 11.2297 112.833 12.206C111.956 13.1824 111.269 14.2829 110.772 15.5075C110.276 16.7155 110.028 18.0476 110.028 19.5039Z" fill="url(#paint3_linear_414_85)"/>
<path d="M132.168 38.2103C132.523 38.2213 132.879 38.2268 133.237 38.2268C135.554 38.2268 137.804 37.9952 139.989 37.5318C142.19 37.085 144.258 36.4479 146.194 35.6205C148.131 34.793 149.901 33.8001 151.506 32.6417C153.112 31.4668 154.493 30.176 155.652 28.7694C156.827 27.3463 157.737 25.8238 158.382 24.2021C159.028 22.5638 159.35 20.8675 159.35 19.1134C159.35 17.3593 159.028 15.6713 158.382 14.0496C157.737 12.4113 156.827 10.8889 155.652 9.48224C154.493 8.05908 153.112 6.7683 151.506 5.60991C149.901 4.43497 148.131 3.4338 146.194 2.60637C144.258 1.77895 142.19 1.14184 139.989 0.695033C137.804 0.231678 135.554 0 133.237 0C132.879 0 126.756 0 125.482 0.318327L132.168 5.97539C132.515 5.96342 132.863 5.95743 133.212 5.95743C134.801 5.95743 136.373 6.08154 137.928 6.32977C139.484 6.56145 140.965 6.92551 142.372 7.42196C143.795 7.90187 145.102 8.50588 146.294 9.23401C147.502 9.96214 148.544 10.8144 149.421 11.7907C150.315 12.7671 151.01 13.8676 151.506 15.0922C152.003 16.3002 152.251 17.6406 152.251 19.1134C152.251 20.5697 152.003 21.9101 151.506 23.1347C151.01 24.3427 150.315 25.4349 149.421 26.4113C148.544 27.3876 147.502 28.2481 146.294 28.9928C145.102 29.7209 143.795 30.3332 142.372 30.8297C140.965 31.3096 139.484 31.6737 137.928 31.9219C136.373 32.1536 134.801 32.2694 133.212 32.2694C132.863 32.2694 132.515 32.2638 132.168 32.2526V38.2103Z" fill="url(#paint4_linear_414_85)"/>
<path d="M190.965 8.34056H183.85L169.62 39.8347H162.454L176.684 8.34056H167.631L170.309 2.44974H193.643L190.965 8.34056Z" fill="url(#paint5_linear_414_85)"/>
<path d="M238.819 2.44974V39.8347H231.984V22.9273C231.695 23.1993 231.381 23.4119 231.041 23.5649C230.718 23.7009 230.301 23.8029 229.791 23.8709C229.281 23.9389 228.644 23.9814 227.879 23.9984C227.131 24.0154 226.179 24.0239 225.022 24.0239H213.878C210.41 24.0409 206.44 24.0494 201.969 24.0494V27.1096C201.969 28.4866 201.927 29.7192 201.842 30.8073C201.757 31.8783 201.578 32.8559 201.306 33.7399C201.051 34.624 200.677 35.4485 200.184 36.2135C199.708 36.9616 199.071 37.7011 198.272 38.4322C197.405 39.2312 196.427 39.8177 195.339 40.1918C194.268 40.5828 193.163 40.7783 192.024 40.7783C190.885 40.7783 189.771 40.5828 188.683 40.1918C187.595 39.8177 186.626 39.2567 185.776 38.5087C184.926 37.7606 184.237 36.8341 183.71 35.729C183.2 34.607 182.945 33.3064 182.945 31.8273C182.945 30.8243 183.115 29.6937 183.455 28.4356C183.795 27.1606 184.407 25.9025 185.291 24.6614C186.192 23.4034 187.416 22.2473 188.964 21.1932C190.511 20.1222 192.491 19.2891 194.905 18.6941V2.44974H201.969V18.2096C202.377 18.1756 202.743 18.1586 203.066 18.1586C203.389 18.1416 203.78 18.1331 204.239 18.1331L226.706 18.1586C227.403 18.1586 228.015 18.1416 228.542 18.1076C229.069 18.0566 229.528 17.9291 229.919 17.7251C230.31 17.504 230.633 17.181 230.888 16.756C231.16 16.314 231.372 15.7019 231.525 14.9199C231.695 14.1209 231.814 13.1263 231.882 11.9362C231.95 10.7462 231.984 9.29261 231.984 7.57551V2.44974H238.819ZM193.452 33.4339C193.69 33.1789 193.894 32.8559 194.064 32.4648C194.234 32.0738 194.378 31.6573 194.497 31.2153C194.616 30.7563 194.701 30.2802 194.752 29.7872C194.82 29.2942 194.871 28.8096 194.905 28.3336C194.939 27.7726 194.956 27.1946 194.956 26.5995C194.956 26.0045 194.939 25.401 194.905 24.7889C194.14 25.0439 193.409 25.3755 192.712 25.7835C192.032 26.1745 191.437 26.6505 190.927 27.2116C190.417 27.7726 190.009 28.4271 189.703 29.1752C189.414 29.9232 189.27 30.7648 189.27 31.6998C189.27 32.6009 189.499 33.2554 189.958 33.6634C190.417 34.0544 190.927 34.2499 191.488 34.2499C191.862 34.2499 192.219 34.1819 192.559 34.0459C192.916 33.8929 193.214 33.6889 193.452 33.4339Z" fill="url(#paint6_linear_414_85)"/>
<path d="M257.856 2.24573C259.233 2.24573 260.61 2.43274 261.987 2.80676C263.364 3.18078 264.682 3.73331 265.94 4.46435C267.215 5.19539 268.397 6.10494 269.485 7.19299C270.573 8.26405 271.516 9.49662 272.315 10.8907C273.114 12.2848 273.743 13.8488 274.202 15.5829C274.661 17.3 274.891 19.1616 274.891 21.1677C274.891 23.2078 274.661 25.0949 274.202 26.829C273.743 28.5631 273.114 30.1272 272.315 31.5213C271.516 32.9154 270.573 34.1479 269.485 35.219C268.397 36.29 267.215 37.1826 265.94 37.8966C264.682 38.6107 263.364 39.1547 261.987 39.5287C260.61 39.8857 259.233 40.0642 257.856 40.0642C256.479 40.0642 255.093 39.8857 253.699 39.5287C252.322 39.1547 250.996 38.6107 249.721 37.8966C248.463 37.1826 247.29 36.29 246.202 35.219C245.114 34.1479 244.17 32.9154 243.371 31.5213C242.572 30.1272 241.943 28.5631 241.484 26.829C241.025 25.0949 240.796 23.2078 240.796 21.1677C240.796 19.1446 241.025 17.2745 241.484 15.5574C241.943 13.8403 242.572 12.2848 243.371 10.8907C244.17 9.49662 245.114 8.26405 246.202 7.19299C247.29 6.10494 248.463 5.19539 249.721 4.46435C250.996 3.73331 252.322 3.18078 253.699 2.80676C255.093 2.43274 256.479 2.24573 257.856 2.24573ZM257.856 34.811C259.199 34.794 260.474 34.4964 261.681 33.9184C262.888 33.3234 263.942 32.4563 264.843 31.3173C265.761 30.1612 266.484 28.7416 267.011 27.0586C267.555 25.3585 267.827 23.3949 267.827 21.1677C267.827 18.9236 267.555 16.96 267.011 15.2769C266.484 13.5768 265.761 12.1573 264.843 11.0182C263.942 9.87914 262.888 9.02059 261.681 8.44256C260.474 7.84753 259.199 7.54151 257.856 7.52451C256.513 7.54151 255.229 7.84753 254.005 8.44256C252.798 9.02059 251.736 9.87914 250.818 11.0182C249.9 12.1573 249.169 13.5768 248.625 15.2769C248.08 16.96 247.808 18.9236 247.808 21.1677C247.808 23.3949 248.08 25.3585 248.625 27.0586C249.169 28.7416 249.9 30.1612 250.818 31.3173C251.736 32.4563 252.798 33.3234 254.005 33.9184C255.229 34.4964 256.513 34.794 257.856 34.811Z" fill="url(#paint7_linear_414_85)"/>
<path d="M299.385 31.0623C298.722 32.4563 298 33.6719 297.218 34.709C296.453 35.729 295.662 36.5961 294.846 37.3101C294.03 38.0071 293.197 38.5767 292.347 39.0187C291.497 39.4607 290.656 39.8007 289.822 40.0387C289.006 40.2938 288.199 40.4638 287.4 40.5488C286.618 40.6338 285.878 40.6763 285.181 40.6763C284.229 40.6763 283.243 40.5063 282.223 40.1663C281.203 39.8432 280.242 39.3417 279.341 38.6617C278.457 37.9646 277.675 37.0976 276.995 36.0605C276.332 35.0235 275.907 33.9779 275.72 32.9239C275.533 31.8698 275.44 30.9518 275.44 30.1697C275.44 29.3537 275.533 28.2741 275.72 26.931C275.924 25.571 276.519 23.7944 277.505 21.6013C277.913 20.6832 278.347 19.7142 278.806 18.6941C279.282 17.6571 279.758 16.603 280.234 15.5319C280.727 14.4609 281.212 13.3983 281.688 12.3443C282.181 11.2732 282.648 10.2532 283.09 9.28411C284.11 7.00598 285.147 4.72786 286.201 2.44974H293.928L286.533 18.2861C285.343 20.8532 284.408 23.1398 283.728 25.146C283.048 27.1351 282.682 28.5206 282.631 29.3027C282.58 30.0677 282.555 30.5352 282.555 30.7052C282.555 31.8273 282.81 32.7199 283.32 33.3829C283.847 34.0289 284.739 34.3519 285.997 34.3519C287.119 34.3519 288.097 34.1054 288.93 33.6124C289.78 33.1194 290.511 32.5158 291.123 31.8018C291.735 31.0878 292.245 30.3397 292.653 29.5577C293.061 28.7756 293.401 28.0956 293.673 27.5176L305.353 2.44974H312.85L304.97 19.7907L299.385 31.0623Z" fill="url(#paint8_linear_414_85)"/>
<path d="M334.744 19.1531H340.838C342.029 19.1531 343.295 19.1616 344.638 19.1786C345.998 19.1786 347.401 19.1786 348.846 19.1786H360.602V39.8602H354.507V33.2809C353.436 34.3179 352.255 35.2955 350.962 36.2135C349.67 37.1146 348.234 37.9051 346.653 38.5852C345.072 39.2652 343.329 39.8007 341.425 40.1918C339.538 40.5828 337.455 40.7783 335.177 40.7783C332.338 40.7783 329.72 40.5148 327.323 39.9877C324.926 39.4607 322.749 38.7382 320.794 37.8201C318.856 36.8851 317.148 35.78 315.669 34.505C314.19 33.2129 312.948 31.8103 311.945 30.2972C310.959 28.7671 310.211 27.1521 309.701 25.452C309.191 23.7519 308.936 22.0263 308.936 20.2752C308.936 18.5071 309.276 16.8155 309.956 15.2004C310.636 13.5853 311.58 12.0893 312.787 10.7122C313.994 9.31811 315.439 8.05154 317.122 6.91248C318.805 5.77342 320.65 4.80437 322.656 4.00532C324.662 3.20628 326.796 2.59425 329.057 2.16923C331.335 1.7272 333.664 1.50619 336.044 1.50619C338.39 1.50619 340.651 1.7527 342.828 2.24573C345.004 2.72176 347.044 3.39329 348.948 4.26034C350.869 5.12738 352.612 6.15594 354.176 7.346C355.757 8.51906 357.117 9.79413 358.256 11.1712L352.467 14.6904C352.314 14.5034 352.051 14.2059 351.677 13.7978C351.302 13.3728 350.801 12.9053 350.172 12.3953C349.56 11.8682 348.803 11.3327 347.902 10.7887C347.018 10.2277 345.973 9.72613 344.766 9.28411C343.576 8.82508 342.216 8.45106 340.685 8.16205C339.155 7.85603 337.455 7.70302 335.585 7.70302C332.355 7.70302 329.507 8.09404 327.042 8.87608C324.577 9.65813 322.511 10.6952 320.845 11.9872C319.179 13.2623 317.921 14.7159 317.071 16.348C316.221 17.9801 315.796 19.6547 315.796 21.3717C315.796 21.4058 315.796 21.4398 315.796 21.4738C315.796 23.1398 316.204 24.7804 317.02 26.3955C317.836 28.0106 319.052 29.4642 320.667 30.7563C322.282 32.0313 324.28 33.0599 326.66 33.8419C329.04 34.624 331.785 35.015 334.897 35.015C336.155 35.015 337.438 34.9045 338.747 34.6835C340.056 34.4624 341.331 34.1394 342.573 33.7144C343.814 33.2894 345.004 32.7794 346.143 32.1843C347.299 31.5893 348.344 30.9178 349.279 30.1697C350.231 29.4047 351.056 28.5801 351.753 27.6961C352.45 26.795 352.969 25.843 353.309 24.8399H334.795C334.251 24.8399 333.588 24.8739 332.806 24.9419C332.023 24.9929 331.182 25.1119 330.281 25.299C329.397 25.469 328.555 25.707 327.756 26.013C326.974 26.319 326.337 26.7015 325.844 27.1606L321.789 23.1058C322.435 22.4938 323.149 21.9753 323.931 21.5503C324.713 21.1252 325.521 20.7682 326.354 20.4792C327.187 20.1732 328.02 19.9352 328.853 19.7652C329.686 19.5952 330.476 19.4676 331.224 19.3826C331.972 19.2806 332.652 19.2211 333.265 19.2041C333.877 19.1701 334.37 19.1531 334.744 19.1531Z" fill="url(#paint9_linear_414_85)"/>
<path d="M385.658 2.44974V39.8347H378.645V24.0494H370.765V39.8347H363.752V2.44974H370.765V18.1586H378.645V2.44974H385.658Z" fill="url(#paint10_linear_414_85)"/>
<path d="M406.786 2.44974V8.34056H400.258V39.8347H393.551V8.34056H387.048V2.44974H406.786Z" fill="url(#paint11_linear_414_85)"/>
<path d="M438.982 17.419C440.614 17.232 442.136 17.1045 443.547 17.0365C444.975 16.9515 446.326 16.909 447.601 16.909C450.917 16.909 453.679 17.164 455.889 17.6741C458.099 18.1841 459.868 18.8726 461.194 19.7397C462.537 20.5897 463.489 21.5758 464.05 22.6978C464.611 23.8199 464.9 24.9844 464.917 26.1915C464.917 26.2595 464.917 26.319 464.917 26.37C464.917 27.5261 464.755 28.6821 464.432 29.8382C464.109 30.9943 463.54 32.0908 462.724 33.1279C461.908 34.1649 460.803 35.1255 459.409 36.0095C458.031 36.8766 456.289 37.6246 454.181 38.2537C452.09 38.8827 449.599 39.3757 446.709 39.7327C443.819 40.0727 440.461 40.2428 436.636 40.2428C433.814 40.2428 431.111 40.0897 428.526 39.7837C425.959 39.4607 423.562 39.0612 421.335 38.5852C419.108 38.1091 417.076 37.5906 415.24 37.0296C413.421 36.4686 411.849 35.9415 410.522 35.4485C409.213 34.9555 408.176 34.539 407.411 34.1989C406.663 33.8419 406.238 33.6379 406.136 33.5869L408.992 27.8491C409.009 27.8491 409.341 28.0021 409.987 28.3081C410.65 28.5971 411.577 28.9542 412.767 29.3792C413.957 29.8042 415.385 30.2717 417.051 30.7818C418.717 31.2748 420.57 31.7338 422.61 32.1588C424.65 32.5838 426.843 32.9409 429.189 33.2299C431.553 33.5189 434.018 33.6634 436.585 33.6634C440.121 33.6634 443.13 33.5444 445.612 33.3064C448.094 33.0514 450.152 32.7199 451.784 32.3118C453.416 31.9038 454.674 31.4363 455.558 30.9093C456.459 30.3822 457.071 29.8552 457.394 29.3282C457.717 28.8011 457.878 28.3081 457.878 27.8491C457.878 27.7131 457.844 27.4666 457.776 27.1096C457.725 26.7525 457.53 26.3105 457.19 25.7835C456.901 25.3245 456.476 24.9419 455.915 24.6359C455.354 24.3129 454.682 24.0664 453.9 23.8964C453.135 23.7094 452.268 23.5819 451.299 23.5139C450.33 23.4289 449.285 23.3864 448.162 23.3864C446.496 23.3864 444.694 23.4544 442.756 23.5904C440.835 23.7094 438.846 23.8454 436.789 23.9984C434.732 24.1514 432.649 24.2959 430.541 24.4319C428.433 24.5509 426.376 24.6104 424.37 24.6104C422.721 24.6104 421.123 24.5509 419.575 24.4319C418.045 24.3129 416.609 24.1089 415.266 23.8199C413.923 23.5309 412.699 23.1398 411.594 22.6468C410.488 22.1538 409.536 21.5333 408.737 20.7852C407.938 20.0372 407.318 19.1446 406.876 18.1076C406.451 17.0705 406.238 15.8635 406.238 14.4864C406.238 13.5003 406.391 12.5143 406.697 11.5282C407.003 10.5422 407.539 9.59862 408.304 8.69757C409.086 7.77953 410.14 6.92948 411.466 6.14744C412.809 5.3484 414.509 4.64286 416.566 4.03083C418.64 3.41879 421.114 2.92577 423.987 2.55175C426.877 2.17773 430.252 1.94821 434.111 1.86321C434.57 1.86321 435.021 1.86321 435.463 1.86321C437.809 1.86321 440.164 1.98222 442.527 2.22023C444.907 2.45824 447.219 2.78976 449.463 3.21478C451.724 3.6398 453.773 4.11583 455.609 4.64286C457.462 5.16989 459.06 5.66291 460.403 6.12194C461.746 6.58096 462.8 6.98048 463.565 7.3205C464.347 7.64352 464.781 7.83053 464.866 7.88153L462.163 13.5683C462.146 13.5513 461.814 13.3983 461.168 13.1093C460.539 12.8033 459.647 12.4293 458.491 11.9872C457.351 11.5452 455.966 11.0777 454.334 10.5847C452.702 10.0746 450.883 9.61562 448.876 9.2076C446.887 8.78258 444.822 8.45106 442.68 8.21305C440.538 7.97504 438.412 7.85603 436.304 7.85603C435.879 7.85603 435.454 7.86453 435.029 7.88153C431.714 7.94953 428.849 8.10254 426.435 8.34056C424.021 8.56157 421.981 8.85058 420.315 9.2076C418.649 9.56462 417.314 9.97264 416.311 10.4317C415.308 10.8907 414.56 11.3837 414.067 11.9107C413.574 12.4208 413.311 12.8458 413.277 13.1858C413.243 13.5258 413.226 13.7553 413.226 13.8744C413.226 14.3164 413.311 14.7669 413.481 15.2259C413.719 15.838 414.152 16.348 414.781 16.756C415.41 17.164 416.184 17.4955 417.102 17.7506C418.037 18.0056 419.108 18.1926 420.315 18.3116C421.539 18.4136 422.857 18.4646 424.268 18.4646C426.427 18.4646 428.756 18.3626 431.255 18.1586C433.754 17.9546 436.33 17.7081 438.982 17.419Z" fill="url(#paint12_linear_414_85)"/>
<defs>
<linearGradient id="paint0_linear_414_85" x1="502.605" y1="15.875" x2="-10.3945" y2="9.87499" gradientUnits="userSpaceOnUse">
<stop stop-color="#F59300"/>
<stop offset="1" stop-color="#BF0536"/>
</linearGradient>
<linearGradient id="paint1_linear_414_85" x1="502.605" y1="15.875" x2="-10.3945" y2="9.87499" gradientUnits="userSpaceOnUse">
<stop stop-color="#F59300"/>
<stop offset="1" stop-color="#BF0536"/>
</linearGradient>
<linearGradient id="paint2_linear_414_85" x1="502.605" y1="15.875" x2="-10.3945" y2="9.87499" gradientUnits="userSpaceOnUse">
<stop stop-color="#F59300"/>
<stop offset="1" stop-color="#BF0536"/>
</linearGradient>
<linearGradient id="paint3_linear_414_85" x1="502.605" y1="15.875" x2="-10.3945" y2="9.87499" gradientUnits="userSpaceOnUse">
<stop stop-color="#F59300"/>
<stop offset="1" stop-color="#BF0536"/>
</linearGradient>
<linearGradient id="paint4_linear_414_85" x1="502.605" y1="15.875" x2="-10.3945" y2="9.87499" gradientUnits="userSpaceOnUse">
<stop stop-color="#F59300"/>
<stop offset="1" stop-color="#BF0536"/>
</linearGradient>
<linearGradient id="paint5_linear_414_85" x1="502.605" y1="15.875" x2="-10.3945" y2="9.87499" gradientUnits="userSpaceOnUse">
<stop stop-color="#F59300"/>
<stop offset="1" stop-color="#BF0536"/>
</linearGradient>
<linearGradient id="paint6_linear_414_85" x1="502.605" y1="15.875" x2="-10.3945" y2="9.87499" gradientUnits="userSpaceOnUse">
<stop stop-color="#F59300"/>
<stop offset="1" stop-color="#BF0536"/>
</linearGradient>
<linearGradient id="paint7_linear_414_85" x1="502.605" y1="15.875" x2="-10.3945" y2="9.87499" gradientUnits="userSpaceOnUse">
<stop stop-color="#F59300"/>
<stop offset="1" stop-color="#BF0536"/>
</linearGradient>
<linearGradient id="paint8_linear_414_85" x1="502.605" y1="15.875" x2="-10.3945" y2="9.87499" gradientUnits="userSpaceOnUse">
<stop stop-color="#F59300"/>
<stop offset="1" stop-color="#BF0536"/>
</linearGradient>
<linearGradient id="paint9_linear_414_85" x1="502.605" y1="15.875" x2="-10.3945" y2="9.87499" gradientUnits="userSpaceOnUse">
<stop stop-color="#F59300"/>
<stop offset="1" stop-color="#BF0536"/>
</linearGradient>
<linearGradient id="paint10_linear_414_85" x1="502.605" y1="15.875" x2="-10.3945" y2="9.87499" gradientUnits="userSpaceOnUse">
<stop stop-color="#F59300"/>
<stop offset="1" stop-color="#BF0536"/>
</linearGradient>
<linearGradient id="paint11_linear_414_85" x1="502.605" y1="15.875" x2="-10.3945" y2="9.87499" gradientUnits="userSpaceOnUse">
<stop stop-color="#F59300"/>
<stop offset="1" stop-color="#BF0536"/>
</linearGradient>
<linearGradient id="paint12_linear_414_85" x1="502.605" y1="15.875" x2="-10.3945" y2="9.87499" gradientUnits="userSpaceOnUse">
<stop stop-color="#F59300"/>
<stop offset="1" stop-color="#BF0536"/>
</linearGradient>
</defs>
</svg>
